HIERARCHY
ROOT root
{
  OFFSET 0 93.2929 0
  CHANNELS 6 Xposition Yposition Zposition Zrotation Xrotation Yrotation
  JOINT torso_1
  {
    OFFSET 0 5.07867 -1.15138
    CHANNELS 6 Xposition Yposition Zposition Zrotation Xrotation Yrotation
    JOINT torso_2
    {
      OFFSET 0 5.61661 1.07143
      CHANNELS 6 Xposition Yposition Zposition Zrotation Xrotation Yrotation
      JOINT torso_3
      {
        OFFSET -1.02604e-17 5.98978 0.11501
        CHANNELS 6 Xposition Yposition Zposition Zrotation Xrotation Yrotation
        JOINT torso_4
        {
          OFFSET -1.10457e-17 6.50583 -0.443523
          CHANNELS 6 Xposition Yposition Zposition Zrotation Xrotation Yrotation
          JOINT torso_5
          {
            OFFSET -1.97295e-17 7.60548 -1.50593
            CHANNELS 6 Xposition Yposition Zposition Zrotation Xrotation Yrotation
            JOINT torso_6
            {
              OFFSET -2.53307e-17 9.49737 -0.914492
              CHANNELS 6 Xposition Yposition Zposition Zrotation Xrotation Yrotation
              JOINT torso_7
              {
                OFFSET -2.90401e-17 10.5513 1.57691
                CHANNELS 6 Xposition Yposition Zposition Zrotation Xrotation Yrotation
                JOINT neck_1
                {
                  OFFSET -1.29193e-17 4.78644 0.715339
                  CHANNELS 6 Xposition Yposition Zposition Zrotation Xrotation Yrotation
                  JOINT neck_2
                  {
                    OFFSET -1.8116e-17 4.82109 0.421791
                    CHANNELS 6 Xposition Yposition Zposition Zrotation Xrotation Yrotation
                    JOINT head
                    {
                      OFFSET -2.00958e-17 4.83041 0.765062
                      CHANNELS 6 Xposition Yposition Zposition Zrotation Xrotation Yrotation
                      End Site
                      {
                        OFFSET 0 0.1 0
                      }
                    }
                  }
                }
                JOINT l_shoulder
                {
                  OFFSET 1.23299 -7.60731 7.53374
                  CHANNELS 6 Xposition Yposition Zposition Zrotation Xrotation Yrotation
                  JOINT l_up_arm
                  {
                    OFFSET 12.9547 3.2495 -3.26872
                    CHANNELS 6 Xposition Yposition Zposition Zrotation Xrotation Yrotation
                    JOINT l_low_arm
                    {
                      OFFSET 29.2081 0.0598081 0.137039
                      CHANNELS 6 Xposition Yposition Zposition Zrotation Xrotation Yrotation
                      JOINT l_hand
                      {
                        OFFSET 24.234 0.0496219 0.113701
                        CHANNELS 6 Xposition Yposition Zposition Zrotation Xrotation Yrotation
                        End Site
                        {
                          OFFSET 0.1 0 0
                        }
                      }
                    }
                  }
                }
                JOINT r_shoulder
                {
                  OFFSET -1.23299 -7.60729 7.53365
                  CHANNELS 6 Xposition Yposition Zposition Zrotation Xrotation Yrotation
                  JOINT r_up_arm
                  {
                    OFFSET -12.9547 3.2495 -3.26872
                    CHANNELS 6 Xposition Yposition Zposition Zrotation Xrotation Yrotation
                    JOINT r_low_arm
                    {
                      OFFSET -29.2081 0.0598081 0.137039
                      CHANNELS 6 Xposition Yposition Zposition Zrotation Xrotation Yrotation
                      JOINT r_hand
                      {
                        OFFSET -24.234 0.0496218 0.113702
                        CHANNELS 6 Xposition Yposition Zposition Zrotation Xrotation Yrotation
                        End Site
                        {
                          OFFSET -0.1 0 0
                        }
                      }
                    }
                  }
                }
              }
            }
          }
        }
      }
    }
  }
  JOINT l_up_leg
  {
    OFFSET 9.23673 -4.20556 2.0327
    CHANNELS 6 Xposition Yposition Zposition Zrotation Xrotation Yrotation
    JOINT l_low_leg
    {
      OFFSET -0.852353 -38.7721 -0.655187
      CHANNELS 6 Xposition Yposition Zposition Zrotation Xrotation Yrotation
      JOINT l_foot
      {
        OFFSET -2.32622 -40.4017 -6.04875
        CHANNELS 6 Xposition Yposition Zposition Zrotation Xrotation Yrotation
        JOINT l_toes
        {
          OFFSET 0.779096 -9.8844 12.4959
          CHANNELS 6 Xposition Yposition Zposition Zrotation Xrotation Yrotation
          End Site
          {
            OFFSET 0 0 0.1
          }
        }
      }
    }
  }
  JOINT r_up_leg
  {
    OFFSET -9.23673 -4.20556 2.0327
    CHANNELS 6 Xposition Yposition Zposition Zrotation Xrotation Yrotation
    JOINT r_low_leg
    {
      OFFSET 0.852353 -38.7721 -0.655187
      CHANNELS 6 Xposition Yposition Zposition Zrotation Xrotation Yrotation
      JOINT r_foot
      {
        OFFSET 2.32622 -40.4017 -6.04875
        CHANNELS 6 Xposition Yposition Zposition Zrotation Xrotation Yrotation
        JOINT r_toes
        {
          OFFSET -0.779096 -9.8844 12.4959
          CHANNELS 6 Xposition Yposition Zposition Zrotation Xrotation Yrotation
          End Site
          {
            OFFSET 0 0 0.1
          }
        }
      }
    }
  }
}
MOTION
Frames: 5
Frame Time: 0.016667
0 93.2929 0 -0 0 -0 0 5.07867 -1.15138 -0 0 -0 0 5.61661 1.07143 -0 0 -0 -1.02604e-17 5.98978 0.11501 -0 0 -0 -1.10457e-17 6.50583 -0.443523 -0 0 -0 -1.97295e-17 7.60548 -1.50593 -0 0 -0 -2.53307e-17 9.49737 -0.914492 -0 0 -0 -2.90401e-17 10.5513 1.57691 -0 0 -0 -1.29193e-17 4.78644 0.715339 -0 0 -0 -1.8116e-17 4.82109 0.421791 -0 0 -0 -2.00958e-17 4.83041 0.765062 -0 0 -0 1.23299 -7.60731 7.53374 -0 0 -0 12.9547 3.2495 -3.26872 -0 0 -0 29.2081 0.0598081 0.137039 -0 0 -0 24.234 0.0496219 0.113701 -0 0 -0 -1.23299 -7.60729 7.53365 -0 0 -0 -12.9547 3.2495 -3.26872 -0 0 -0 -29.2081 0.0598081 0.137039 -0 0 -0 -24.234 0.0496218 0.113702 -0 0 -0 9.23673 -4.20556 2.0327 -0 0 -0 -0.852353 -38.7721 -0.655187 -0 0 -0 -2.32622 -40.4017 -6.04875 -0 0 -0 0.779096 -9.8844 12.4959 -0 0 -0 -9.23673 -4.20556 2.0327 -0 0 -0 0.852353 -38.7721 -0.655187 -0 0 -0 2.32622 -40.4017 -6.04875 -0 0 -0 -0.779096 -9.8844 12.4959 -0 0 -0 
17.7229 90.8954 74.3026 -1.87711 16.6488 0.0870757 0 5.07867 -1.15138 -4.87617 5.56652 0.574107 0 5.61661 1.07143 -4.02711 5.1161 0.250964 -1.02604e-17 5.98978 0.11501 -3.12932 5.23931 0.311386 -1.10457e-17 6.50583 -0.443523 -2.31474 5.23556 0.36097 -1.97295e-17 7.60548 -1.50593 -1.44037 4.47748 0.706934 -2.53307e-17 9.49737 -0.914492 -0.392975 4.54645 0.595783 -2.90401e-17 10.5513 1.57691 0.0658094 0.36887 -0.136221 -1.29193e-17 4.78644 0.715339 -0.992628 8.3868 -0.650025 -1.8116e-17 4.82109 0.421791 0.996402 -8.62472 -0.399456 -2.00958e-17 4.83041 0.765062 0.145465 -13.2119 2.22136 1.23299 -7.60731 7.53374 9.34358 -2.98537 -0.0842133 12.9547 3.2495 -3.26872 -71.9305 4.70892 -31.6742 29.2081 0.0598081 0.137039 6.63755 -1.98163 -33.8064 24.234 0.0496219 0.113701 2.59643 -8.13803 -2.54042 -1.23299 -7.60729 7.53365 -2.56751 -0.587747 0.627964 -12.9547 3.2495 -3.26872 86.8568 20.5655 4.24766 -29.2081 0.0598081 0.137039 -9.2765 -4.35631 50.8283 -24.234 0.0496218 0.113702 3.22307 -31.1957 4.28687 9.23673 -4.20556 2.0327 12.065 -30.8845 6.25095 -0.852353 -38.7721 -0.655187 -3.14837 11.6627 0.117286 -2.32622 -40.4017 -6.04875 -1.46253 -4.18054 15.3339 0.779096 -9.8844 12.4959 7.00397e-16 -7.66991e-16 -1.57238e-17 -9.23673 -4.20556 2.0327 -13.5483 -12.8044 2.90963 0.852353 -38.7721 -0.655187 1.14902 4.29046 0.0318779 2.32622 -40.4017 -6.04875 10.9752 -5.94381 -16.3553 -0.779096 -9.8844 12.4959 -5.96354e-16 -5.59082e-16 -1.27471e-14 
17.3759 90.7829 74.0003 -1.38203 16.3212 0.0626173 0 5.07867 -1.15138 -4.9368 5.48806 0.598823 0 5.61661 1.07143 -4.07893 5.08426 0.27169 -1.02604e-17 5.98978 0.11501 -3.16961 5.25601 0.333989 -1.10457e-17 6.50583 -0.443523 -2.34353 5.33301 0.383651 -1.97295e-17 7.60548 -1.50593 -1.45658 4.61603 0.734735 -2.53307e-17 9.49737 -0.914492 -0.386635 4.69278 0.622138 -2.90401e-17 10.5513 1.57691 0.0735559 0.358641 -0.138365 -1.29193e-17 4.78644 0.715339 -0.960334 8.54397 -0.827103 -1.8116e-17 4.82109 0.421791 1.09157 -8.54094 -0.48904 -2.00958e-17 4.83041 0.765062 0.218521 -13.1735 2.16693 1.23299 -7.60731 7.53374 9.27156 -3.02051 -0.167617 12.9547 3.2495 -3.26872 -71.7714 5.70683 -32.4508 29.2081 0.0598081 0.137039 6.30056 -1.76663 -31.8911 24.234 0.0496219 0.113701 2.68379 -8.30593 -2.41473 -1.23299 -7.60729 7.53365 -2.52818 -0.699999 0.66929 -12.9547 3.2495 -3.26872 86.6904 20.5344 4.65468 -29.2081 0.0598081 0.137039 -9.21903 -4.28725 50.4001 -24.234 0.0496218 0.113702 3.19064 -31.8939 4.24047 9.23673 -4.20556 2.0327 11.6906 -30.5946 6.19268 -0.852353 -38.7721 -0.655187 -3.04993 11.3055 0.103926 -2.32622 -40.4017 -6.04875 -1.64501 -3.89488 15.3101 0.779096 -9.8844 12.4959 5.8187e-16 -7.70274e-16 -1.24406e-17 -9.23673 -4.20556 2.0327 -13.7743 -12.7958 2.67962 0.852353 -38.7721 -0.655187 1.26167 4.71044 0.030368 2.32622 -40.4017 -6.04875 10.5424 -6.74536 -16.2569 -0.779096 -9.8844 12.4959 -5.96354e-16 -5.59082e-16 -1.27471e-14 
17.0389 90.6823 73.6999 -0.920937 16.0019 0.0157414 0 5.07867 -1.15138 -4.98042 5.42029 0.622979 0 5.61661 1.07143 -4.11684 5.05918 0.29202 -1.02604e-17 5.98978 0.11501 -3.19965 5.27776 0.356157 -1.10457e-17 6.50583 -0.443523 -2.36529 5.43231 0.405649 -1.97295e-17 7.60548 -1.50593 -1.46903 4.75414 0.760914 -2.53307e-17 9.49737 -0.914492 -0.380319 4.83638 0.647472 -2.90401e-17 10.5513 1.57691 0.0796858 0.345535 -0.141425 -1.29193e-17 4.78644 0.715339 -0.928334 8.65859 -0.973548 -1.8116e-17 4.82109 0.421791 1.16439 -8.46965 -0.564247 -2.00958e-17 4.83041 0.765062 0.287774 -13.122 2.12977 1.23299 -7.60731 7.53374 9.20777 -3.05291 -0.270049 12.9547 3.2495 -3.26872 -71.6299 6.61522 -33.1631 29.2081 0.0598081 0.137039 5.97742 -1.57489 -30.0896 24.234 0.0496219 0.113701 2.74625 -8.54574 -2.28622 -1.23299 -7.60729 7.53365 -2.52025 -0.808448 0.725818 -12.9547 3.2495 -3.26872 86.5091 20.5061 5.09541 -29.2081 0.0598081 0.137039 -9.13906 -4.19284 49.8102 -24.234 0.0496218 0.113702 3.2246 -32.5522 4.2481 9.23673 -4.20556 2.0327 11.3562 -30.2704 6.14452 -0.852353 -38.7721 -0.655187 -2.93577 10.8902 0.0892014 -2.32622 -40.4017 -6.04875 -1.87092 -3.59285 15.2859 0.779096 -9.8844 12.4959 -9.47412e-17 -7.9598e-16 1.32656e-17 -9.23673 -4.20556 2.0327 -13.9499 -12.7361 2.80631 0.852353 -38.7721 -0.655187 1.34433 5.01841 0.0287335 2.32622 -40.4017 -6.04875 10.0983 -7.57941 -16.1614 -0.779096 -9.8844 12.4959 -5.96354e-16 -5.59082e-16 -1.27471e-14 
16.71 90.5931 73.3844 -0.517271 15.6995 -0.0612806 0 5.07867 -1.15138 -4.99681 5.39185 0.642665 0 5.61661 1.07143 -4.13283 5.06074 0.31017 -1.02604e-17 5.98978 0.11501 -3.21429 5.31277 0.375842 -1.10457e-17 6.50583 -0.443523 -2.3769 5.52279 0.424994 -1.97295e-17 7.60548 -1.50593 -1.47697 4.87043 0.782706 -2.53307e-17 9.49737 -0.914492 -0.376511 4.9521 0.669937 -2.90401e-17 10.5513 1.57691 0.0846819 0.33303 -0.144843 -1.29193e-17 4.78644 0.715339 -0.903448 8.73073 -1.0796 -1.8116e-17 4.82109 0.421791 1.19596 -8.43529 -0.620827 -2.00958e-17 4.83041 0.765062 0.366629 -13.0518 2.10542 1.23299 -7.60731 7.53374 9.17168 -3.07568 -0.388029 12.9547 3.2495 -3.26872 -71.4824 7.45697 -33.7816 29.2081 0.0598081 0.137039 5.68041 -1.41046 -28.4612 24.234 0.0496219 0.113701 2.73153 -9.08062 -2.16039 -1.23299 -7.60729 7.53365 -2.54806 -0.907665 0.799695 -12.9547 3.2495 -3.26872 86.2966 20.5031 5.55605 -29.2081 0.0598081 0.137039 -9.04883 -4.08862 49.1529 -24.234 0.0496218 0.113702 3.27743 -33.1641 4.23097 9.23673 -4.20556 2.0327 11.1126 -29.959 6.10498 -0.852353 -38.7721 -0.655187 -2.821 10.4718 0.0752366 -2.32622 -40.4017 -6.04875 -2.1985 -3.28858 15.2632 0.779096 -9.8844 12.4959 7.6719e-16 -7.60341e-16 -2.23732e-17 -9.23673 -4.20556 2.0327 -14.0639 -12.666 2.95496 0.852353 -38.7721 -0.655187 1.41034 5.2642 0.0271082 2.32622 -40.4017 -6.04875 9.69738 -8.46321 -16.0575 -0.779096 -9.8844 12.4959 -5.69956e-16 -5.60732e-16 -1.27479e-14 
